# Blender v2.78 (sub 0) OBJ File: ''
# www.blender.org
mtllib ramp1_counterclockwise.mtl
o MeshBody10
v 21.650637 5.000006 -12.499997
v 21.650637 0.000006 -12.500000
v 21.852261 4.843756 -12.144082
v 22.005035 0.000006 -11.865009
v 22.048033 4.687506 -11.784915
v 22.237902 4.531256 -11.422594
v 22.340815 0.000006 -11.219980
v 22.421818 4.375006 -11.057214
v 22.657696 0.000006 -10.565456
v 22.599733 4.218756 -10.688874
v 22.771595 4.062506 -10.317673
v 22.955402 0.000006 -9.901994
v 22.937363 3.906256 -9.943709
v 23.096989 3.750006 -9.567083
v 23.233688 0.000006 -9.230154
v 23.250429 3.593753 -9.187896
v 23.397648 3.437503 -8.806248
v 23.492315 0.000003 -8.550504
v 23.538601 3.281253 -8.422244
v 23.673252 3.125003 -8.035983
v 23.731068 0.000003 -7.863619
v 23.801567 2.968753 -7.647573
v 23.949738 0.000003 -7.170081
v 23.923510 2.812503 -7.257114
v 24.039043 2.656253 -6.864715
v 24.148146 0.000003 -6.470476
v 24.148146 2.500003 -6.470476
v 24.250782 2.343753 -6.074502
v 24.326122 0.000003 -5.765397
v 24.346924 2.187503 -5.676907
v 24.436550 2.031253 -5.277789
v 24.483517 0.000003 -5.055439
v 24.519632 1.875003 -4.877255
v 24.620193 0.000003 -4.341204
v 24.596149 1.718753 -4.475420
v 24.666082 1.562503 -4.072387
v 24.736042 0.000003 -3.623297
v 24.729412 1.406253 -3.668262
v 24.786121 1.250000 -3.263155
v 24.830959 0.000000 -2.902323
v 24.836195 1.093750 -2.857174
v 24.879618 0.937500 -2.450428
v 24.904869 0.000000 -2.178894
v 24.916382 0.781250 -2.043027
v 24.946472 0.625000 -1.635078
v 24.957705 0.000000 -1.453621
v 24.969885 0.468750 -1.226692
v 24.989424 0.000000 -0.727118
v 24.986614 0.312500 -0.817977
v 24.996653 0.156250 -0.409043
v 25.000000 0.000000 0.000000
v 26.364511 0.000006 -14.314762
v 25.980761 0.000006 -15.000000
v 26.730196 0.000006 -13.619715
v 27.077559 0.000006 -12.915332
v 27.406363 0.000006 -12.202100
v 27.716387 0.000006 -11.480503
v 28.007412 0.000006 -10.751039
v 28.279245 0.000006 -10.014206
v 28.531694 0.000006 -9.270510
v 28.764591 0.000003 -8.520460
v 28.977776 0.000003 -7.764571
v 29.171097 0.000003 -7.003361
v 29.344427 0.000003 -6.237351
v 29.497646 0.000003 -5.467066
v 29.630650 0.000003 -4.693034
v 29.743345 0.000003 -3.915786
v 29.835655 0.000003 -3.135854
v 29.907520 0.000000 -2.353773
v 29.958887 0.000000 -1.570079
v 29.989719 0.000000 -0.785308
v 30.000000 0.000000 0.000000
v 25.980761 5.000006 -14.999997
v 26.222712 4.843756 -14.572899
v 26.457640 4.687506 -14.141899
v 26.685480 4.531256 -13.707114
v 26.906183 4.375006 -13.268657
v 27.119678 4.218756 -12.826650
v 27.325914 4.062506 -12.381207
v 27.524836 3.906256 -11.932451
v 27.716387 3.750006 -11.480500
v 27.900517 3.593756 -11.025476
v 28.077177 3.437506 -10.567499
v 28.246323 3.281256 -10.106693
v 28.407904 3.125006 -9.643181
v 28.561880 2.968753 -9.177088
v 28.708210 2.812503 -8.708540
v 28.846853 2.656253 -8.237659
v 28.977776 2.500003 -7.764571
v 29.100939 2.343753 -7.289402
v 29.216309 2.187503 -6.812285
v 29.323858 2.031253 -6.333344
v 29.423559 1.875003 -5.852706
v 29.515381 1.718753 -5.370503
v 29.599298 1.562503 -4.886864
v 29.675295 1.406253 -4.401914
v 29.743345 1.250003 -3.915786
v 29.803432 1.093753 -3.428609
v 29.855541 0.937500 -2.940514
v 29.899656 0.781250 -2.451632
v 29.935768 0.625000 -1.962094
v 29.963863 0.468750 -1.472030
v 29.983938 0.312500 -0.981572
v 29.995985 0.156250 -0.490852
vt 0.7734 0.6250
vt 0.7070 0.7969
vt 0.7539 0.6250
vt 0.6797 0.7891
vt 0.7383 0.6250
vt 0.7227 0.6250
vt 0.6562 0.7773
vt 0.7070 0.6250
vt 0.6289 0.7695
vt 0.6914 0.6250
vt 0.6758 0.6250
vt 0.6055 0.7578
vt 0.6562 0.6250
vt 0.6406 0.6250
vt 0.5781 0.7500
vt 0.6250 0.6250
vt 0.6094 0.6250
vt 0.5547 0.7383
vt 0.5938 0.6250
vt 0.5781 0.6250
vt 0.5273 0.7305
vt 0.5586 0.6250
vt 0.5039 0.7227
vt 0.5430 0.6250
vt 0.5273 0.6250
vt 0.4766 0.7109
vt 0.5117 0.6250
vt 0.4961 0.6250
vt 0.4531 0.7031
vt 0.4805 0.6250
vt 0.4609 0.6250
vt 0.4258 0.6914
vt 0.4453 0.6250
vt 0.4023 0.6836
vt 0.4297 0.6250
vt 0.4141 0.6250
vt 0.3750 0.6719
vt 0.3984 0.6250
vt 0.3789 0.6250
vt 0.3516 0.6641
vt 0.3633 0.6250
vt 0.3477 0.6250
vt 0.3281 0.6523
vt 0.3320 0.6250
vt 0.3164 0.6250
vt 0.3008 0.6445
vt 0.3008 0.6250
vt 0.2773 0.6328
vt 0.2812 0.6250
vt 0.2656 0.6250
vt 0.2500 0.6250
vt 0.7422 0.5938
vt 0.5898 0.4297
vt 0.7734 0.5859
vt 0.6172 0.4258
vt 0.6445 0.4219
vt 0.5625 0.4336
vt 0.7148 0.5977
vt 0.6875 0.6055
vt 0.5352 0.4375
vt 0.6562 0.6094
vt 0.5117 0.4375
vt 0.6289 0.6133
vt 0.6016 0.6172
vt 0.4844 0.4375
vt 0.5703 0.6211
vt 0.4570 0.4375
vt 0.5430 0.6211
vt 0.4297 0.4375
vt 0.5117 0.6250
vt 0.4844 0.6250
vt 0.4023 0.4336
vt 0.4531 0.6250
vt 0.3750 0.4297
vt 0.4258 0.6211
vt 0.3945 0.6211
vt 0.3477 0.4258
vt 0.3672 0.6172
vt 0.3203 0.4219
vt 0.3359 0.6133
vt 0.3086 0.6094
vt 0.2930 0.4180
vt 0.2812 0.6055
vt 0.2695 0.4141
vt 0.2500 0.5977
vt 0.2227 0.5938
vt 0.1953 0.5859
vt 0.2422 0.4062
vt 0.6719 0.4180
vt 0.6992 0.4141
vt 0.7227 0.4062
vt 0.5859 0.1875
vt 0.5653 0.1807
vt 0.5859 0.0000
vt 0.5566 0.0000
vt 0.5471 0.1748
vt 0.5273 0.0000
vt 0.5289 0.1690
vt 0.5107 0.1632
vt 0.4980 0.0000
vt 0.4925 0.1574
vt 0.4743 0.1516
vt 0.4687 0.0000
vt 0.4561 0.1458
vt 0.4394 0.0000
vt 0.4379 0.1399
vt 0.4197 0.1341
vt 0.4101 0.0000
vt 0.4015 0.1283
vt 0.3808 0.0000
vt 0.3833 0.1225
vt 0.3651 0.1167
vt 0.3515 0.0000
vt 0.3469 0.1108
vt 0.3287 0.1050
vt 0.3222 0.0000
vt 0.3105 0.0992
vt 0.2930 0.0000
vt 0.2922 0.0934
vt 0.2740 0.0876
vt 0.2637 0.0000
vt 0.2558 0.0818
vt 0.2344 0.0000
vt 0.2376 0.0759
vt 0.2194 0.0700
vt 0.2051 0.0000
vt 0.2012 0.0642
vt 0.1830 0.0584
vt 0.1758 0.0000
vt 0.1648 0.0526
vt 0.1465 0.0000
vt 0.1466 0.0467
vt 0.1284 0.0409
vt 0.1172 0.0000
vt 0.1102 0.0351
vt 0.0879 0.0000
vt 0.0920 0.0293
vt 0.0738 0.0235
vt 0.0586 0.0000
vt 0.0556 0.0177
vt 0.0374 0.0118
vt 0.0293 0.0000
vt 0.0192 0.0060
vt 0.0000 0.0000
vt 0.0000 1.0000
vt 0.0000 0.8203
vt 0.0195 1.0000
vt 0.0195 0.8203
vt 0.0391 1.0000
vt 0.0391 0.8203
vt 0.0547 1.0000
vt 0.0547 0.8203
vt 0.0742 1.0000
vt 0.0742 0.8203
vt 0.0938 1.0000
vt 0.0938 0.8203
vt 0.1094 1.0000
vt 0.1094 0.8203
vt 0.1289 1.0000
vt 0.1289 0.8203
vt 0.1484 1.0000
vt 0.1484 0.8203
vt 0.1680 1.0000
vt 0.1680 0.8203
vt 0.1836 1.0000
vt 0.1836 0.8203
vt 0.2031 1.0000
vt 0.2031 0.8203
vt 0.2227 1.0000
vt 0.2227 0.8203
vt 0.2422 1.0000
vt 0.2422 0.8203
vt 0.2578 1.0000
vt 0.2578 0.8203
vt 0.2773 1.0000
vt 0.2773 0.8203
vt 0.2969 1.0000
vt 0.2969 0.8203
vt 0.3164 0.8203
vt 0.3164 1.0000
vt 0.3320 0.8203
vt 0.3320 1.0000
vt 0.3516 0.8203
vt 0.3516 1.0000
vt 0.3711 0.8203
vt 0.3711 1.0000
vt 0.3906 0.8203
vt 0.3906 1.0000
vt 0.4062 0.8203
vt 0.4062 1.0000
vt 0.4258 0.8203
vt 0.4258 1.0000
vt 0.4453 0.8203
vt 0.4453 1.0000
vt 0.4648 0.8203
vt 0.4648 1.0000
vt 0.4805 0.8203
vt 0.4805 1.0000
vt 0.5000 0.8203
vt 0.5000 1.0000
vt 0.5195 0.8203
vt 0.5195 1.0000
vt 0.5391 0.8203
vt 0.5391 1.0000
vt 0.5547 0.8203
vt 0.5547 1.0000
vt 0.5742 0.8203
vt 0.5742 1.0000
vt 0.5938 1.0000
vt 0.5938 0.8203
vt 0.7734 0.1875
vt 0.7734 0.0000
vn -0.8701 0.0000 0.4929
vn -0.8710 0.0001 0.4914
vn -0.8716 0.0028 0.4902
vn -0.8767 0.0000 0.4810
vn -0.8781 -0.0001 0.4786
vn -0.8857 0.0002 0.4642
vn -0.8861 0.0003 0.4635
vn -0.8869 0.0004 0.4619
vn -0.8916 -0.0000 0.4529
vn -0.8933 -0.0002 0.4495
vn -0.9004 0.0004 0.4352
vn -0.9001 0.0005 0.4358
vn -0.9003 0.0005 0.4353
vn -0.9004 0.0004 0.4351
vn -0.9075 -0.0002 0.4201
vn -0.9088 0.0000 0.4172
vn -0.9128 0.0008 0.4085
vn -0.9137 0.0002 0.4064
vn -0.9142 0.0001 0.4053
vn -0.9207 -0.0001 0.3902
vn -0.9216 0.0001 0.3882
vn -0.9247 0.0027 0.3807
vn -0.9261 0.0001 0.3772
vn -0.9270 -0.0001 0.3751
vn -0.9330 0.0001 0.3599
vn -0.9334 0.0003 0.3588
vn -0.9339 0.0010 0.3575
vn -0.9377 -0.0000 0.3475
vn -0.9388 -0.0002 0.3445
vn -0.9442 0.0004 0.3293
vn -0.9444 0.0005 0.3288
vn -0.9446 0.0006 0.3283
vn -0.9496 -0.0003 0.3136
vn -0.9539 0.0007 0.3001
vn -0.9537 0.0008 0.3007
vn -0.9543 0.0005 0.2989
vn -0.9545 0.0003 0.2982
vn -0.9593 -0.0002 0.2824
vn -0.9600 0.0001 0.2799
vn -0.9625 0.0021 0.2714
vn -0.9633 0.0003 0.2683
vn -0.9638 -0.0000 0.2667
vn -0.9680 0.0000 0.2509
vn -0.9684 0.0003 0.2493
vn -0.9688 0.0027 0.2479
vn -0.9714 0.0001 0.2375
vn -0.9720 -0.0003 0.2349
vn -0.9757 0.0004 0.2193
vn -0.9758 0.0006 0.2185
vn -0.9762 0.0009 0.2167
vn -0.9785 -0.0000 0.2063
vn -0.9792 -0.0004 0.2029
vn -0.9823 0.0009 0.1876
vn -0.9822 0.0011 0.1880
vn -0.9823 0.0010 0.1875
vn -0.9823 0.0009 0.1874
vn -0.9853 -0.0004 0.1708
vn -0.9858 0.0001 0.1681
vn -0.9873 0.0024 0.1588
vn -0.9878 0.0006 0.1560
vn -0.9879 0.0003 0.1549
vn -0.9904 -0.0002 0.1385
vn -0.9906 0.0003 0.1368
vn -0.9910 0.0044 0.1336
vn -0.9923 0.0002 0.1241
vn -0.9925 -0.0003 0.1223
vn -0.9943 0.0004 0.1063
vn -0.9944 0.0008 0.1054
vn -0.9946 0.0021 0.1037
vn -0.9958 -0.0003 0.0918
vn -0.9960 -0.0009 0.0895
vn -0.9972 0.0018 0.0742
vn -0.9972 0.0020 0.0741
vn -0.9973 0.0024 0.0735
vn -0.9974 0.0032 0.0727
vn -0.9984 -0.0015 0.0567
vn -0.9991 0.0037 0.0425
vn -0.9990 0.0048 0.0436
vn -0.9991 0.0036 0.0423
vn -0.9991 0.0033 0.0421
vn -0.9997 -0.0021 0.0237
vn -0.9998 0.0166 0.0145
vn 0.0000 -1.0000 -0.0000
vn 0.8701 0.0000 -0.4929
vn 0.8766 -0.0016 -0.4813
vn 0.8708 -0.0001 -0.4917
vn 0.8766 0.0000 -0.4813
vn 0.8781 0.0002 -0.4785
vn 0.8850 -0.0004 -0.4656
vn 0.8852 -0.0003 -0.4652
vn 0.8855 -0.0003 -0.4647
vn 0.8857 -0.0002 -0.4642
vn 0.8942 -0.0001 -0.4476
vn 0.8932 0.0001 -0.4496
vn 0.8992 -0.0009 -0.4376
vn 0.8995 -0.0001 -0.4369
vn 0.9005 0.0001 -0.4349
vn 0.9076 -0.0003 -0.4198
vn 0.9074 -0.0002 -0.4202
vn 0.9079 -0.0004 -0.4192
vn 0.9081 -0.0005 -0.4187
vn 0.9155 -0.0000 -0.4024
vn 0.9142 0.0002 -0.4052
vn 0.9198 -0.0006 -0.3924
vn 0.9202 -0.0002 -0.3915
vn 0.9207 0.0000 -0.3902
vn 0.9275 -0.0002 -0.3739
vn 0.9270 0.0000 -0.3751
vn 0.9318 -0.0020 -0.3629
vn 0.9319 0.0000 -0.3627
vn 0.9330 0.0003 -0.3598
vn 0.9382 -0.0006 -0.3461
vn 0.9383 -0.0005 -0.3458
vn 0.9386 -0.0004 -0.3451
vn 0.9387 -0.0003 -0.3447
vn 0.9450 -0.0000 -0.3271
vn 0.9443 0.0002 -0.3291
vn 0.9486 -0.0010 -0.3165
vn 0.9489 -0.0001 -0.3157
vn 0.9495 0.0002 -0.3136
vn 0.9547 -0.0004 -0.2976
vn 0.9545 -0.0003 -0.2982
vn 0.9549 -0.0006 -0.2969
vn 0.9550 -0.0007 -0.2965
vn 0.9601 0.0001 -0.2796
vn 0.9593 0.0004 -0.2823
vn 0.9631 -0.0007 -0.2690
vn 0.9634 -0.0002 -0.2679
vn 0.9638 -0.0000 -0.2667
vn 0.9683 -0.0002 -0.2497
vn 0.9680 0.0000 -0.2509
vn 0.9712 -0.0025 -0.2383
vn 0.9713 0.0001 -0.2377
vn 0.9720 0.0004 -0.2349
vn 0.9753 -0.0009 -0.2207
vn 0.9754 -0.0010 -0.2206
vn 0.9756 -0.0006 -0.2194
vn 0.9757 -0.0005 -0.2192
vn 0.9796 -0.0001 -0.2011
vn 0.9792 0.0003 -0.2030
vn 0.9818 -0.0013 -0.1899
vn 0.9820 -0.0000 -0.1888
vn 0.9824 0.0004 -0.1869
vn 0.9853 -0.0006 -0.1707
vn 0.9852 -0.0005 -0.1711
vn 0.9855 -0.0010 -0.1697
vn 0.9856 -0.0012 -0.1693
vn 0.9884 0.0001 -0.1521
vn 0.9880 0.0006 -0.1546
vn 0.9900 -0.0012 -0.1409
vn 0.9902 -0.0004 -0.1397
vn 0.9903 0.0000 -0.1386
vn 0.9926 -0.0004 -0.1215
vn 0.9925 0.0000 -0.1224
vn 0.9940 -0.0021 -0.1092
vn 0.9942 0.0004 -0.1080
vn 0.9944 0.0010 -0.1059
vn 0.9958 -0.0021 -0.0915
vn 0.9959 -0.0017 -0.0909
vn 0.9959 -0.0016 -0.0907
vn 0.9959 -0.0013 -0.0903
vn 0.9974 0.0005 -0.0725
vn 0.9973 0.0009 -0.0733
vn 0.9982 0.0000 -0.0595
vn 0.9984 0.0010 -0.0574
vn 0.9984 0.0013 -0.0568
vn 0.9992 -0.0057 -0.0396
vn 0.9991 -0.0019 -0.0415
vn 0.9991 -0.0026 -0.0412
vn 0.9992 -0.0062 -0.0393
vn 0.9997 0.0039 -0.0233
vn 0.9998 -0.0154 -0.0131
vn 0.0000 0.9342 0.3568
vn 0.0050 0.9529 0.3033
vn 0.0058 0.9342 0.3568
vn 0.0099 0.9529 0.3032
vn 0.0117 0.9342 0.3566
vn 0.0149 0.9529 0.3030
vn 0.0175 0.9342 0.3564
vn 0.0198 0.9529 0.3027
vn 0.0233 0.9342 0.3561
vn 0.0248 0.9529 0.3023
vn 0.0292 0.9342 0.3556
vn 0.0297 0.9529 0.3019
vn 0.0350 0.9342 0.3551
vn 0.0347 0.9529 0.3013
vn 0.0408 0.9342 0.3545
vn 0.0396 0.9529 0.3007
vn 0.0466 0.9342 0.3538
vn 0.0445 0.9529 0.3000
vn 0.0524 0.9342 0.3530
vn 0.0494 0.9529 0.2993
vn 0.0581 0.9342 0.3521
vn 0.0543 0.9529 0.2984
vn 0.0639 0.9342 0.3511
vn 0.0592 0.9529 0.2975
vn 0.0696 0.9342 0.3500
vn 0.0640 0.9529 0.2965
vn 0.0753 0.9342 0.3488
vn 0.0689 0.9529 0.2954
vn 0.0810 0.9342 0.3475
vn 0.0737 0.9529 0.2942
vn 0.0867 0.9342 0.3461
vn 0.0785 0.9529 0.2930
vn 0.0980 0.9342 0.3431
vn 0.0833 0.9529 0.2917
vn 0.1036 0.9342 0.3415
vn 0.0881 0.9529 0.2903
vn 0.1092 0.9342 0.3397
vn 0.0928 0.9529 0.2888
vn 0.1147 0.9342 0.3379
vn 0.0975 0.9529 0.2872
vn 0.1202 0.9342 0.3360
vn 0.1022 0.9529 0.2856
vn 0.1257 0.9342 0.3340
vn 0.1068 0.9529 0.2839
vn 0.1311 0.9342 0.3319
vn 0.1115 0.9529 0.2821
vn 0.1366 0.9342 0.3297
vn 0.1161 0.9529 0.2802
vn 0.1419 0.9342 0.3274
vn 0.1206 0.9529 0.2783
vn 0.1473 0.9342 0.3250
vn 0.1252 0.9529 0.2763
vn 0.1526 0.9342 0.3226
vn 0.1297 0.9529 0.2742
vn 0.1578 0.9342 0.3200
vn 0.1342 0.9529 0.2720
vn 0.1630 0.9342 0.3174
vn 0.1386 0.9529 0.2698
vn 0.1682 0.9342 0.3147
vn 0.1430 0.9529 0.2675
vn 0.1733 0.9342 0.3119
vn 0.1517 0.9529 0.2627
vn -0.5000 0.0000 -0.8660
usemtl Steel_-_Satin.003
s 1
f 1/1/1 2/2/2 3/3/3
f 3/3/3 2/2/2 4/4/4
f 3/3/3 4/4/4 5/5/5
f 5/5/6 4/4/7 6/6/8
f 6/6/8 4/4/7 7/7/9
f 6/6/8 7/7/9 8/8/10
f 8/8/11 7/7/12 9/9/13
f 8/8/11 9/9/13 10/10/14
f 10/10/15 9/9/16 11/11/17
f 11/11/17 9/9/16 12/12/18
f 11/11/17 12/12/18 13/13/19
f 13/13/20 12/12/21 14/14/22
f 14/14/22 12/12/21 15/15/23
f 14/14/22 15/15/23 16/16/24
f 16/16/25 15/15/26 17/17/27
f 17/17/27 15/15/26 18/18/28
f 17/17/27 18/18/28 19/19/29
f 19/19/30 18/18/31 20/20/31
f 20/20/31 18/18/31 21/21/32
f 20/20/33 21/21/33 22/22/33
f 22/22/34 21/21/35 23/23/36
f 22/22/34 23/23/36 24/24/37
f 24/24/38 23/23/39 25/25/40
f 25/25/40 23/23/39 26/26/41
f 25/25/40 26/26/41 27/27/42
f 27/27/43 26/26/44 28/28/45
f 28/28/45 26/26/44 29/29/46
f 28/28/45 29/29/46 30/30/47
f 30/30/48 29/29/49 31/31/50
f 31/31/50 29/29/49 32/32/51
f 31/31/50 32/32/51 33/33/52
f 33/33/53 32/32/54 34/34/55
f 33/33/53 34/34/55 35/35/56
f 35/35/57 34/34/58 36/36/59
f 36/36/59 34/34/58 37/37/60
f 36/36/59 37/37/60 38/38/61
f 38/38/62 37/37/63 39/39/64
f 39/39/64 37/37/63 40/40/65
f 39/39/64 40/40/65 41/41/66
f 41/41/67 40/40/68 42/42/69
f 42/42/69 40/40/68 43/43/70
f 42/42/69 43/43/70 44/44/71
f 44/44/72 43/43/73 45/45/74
f 45/45/74 43/43/73 46/46/75
f 45/45/76 46/46/76 47/47/76
f 47/47/77 46/46/78 48/48/79
f 47/47/77 48/48/79 49/49/80
f 49/49/81 48/48/81 50/50/81
f 50/50/82 48/48/82 51/51/82
f 52/52/83 15/53/83 53/54/83
f 53/54/83 15/53/83 12/55/83
f 53/54/83 12/55/83 9/56/83
f 15/53/83 52/52/83 18/57/83
f 18/57/83 52/52/83 54/58/83
f 18/57/83 54/58/83 55/59/83
f 18/57/83 55/59/83 21/60/83
f 21/60/83 55/59/83 56/61/83
f 21/60/83 56/61/83 23/62/83
f 23/62/83 56/61/83 57/63/83
f 23/62/83 57/63/83 58/64/83
f 23/62/83 58/64/83 26/65/83
f 26/65/83 58/64/83 59/66/83
f 26/65/83 59/66/83 29/67/83
f 29/67/83 59/66/83 60/68/83
f 29/67/83 60/68/83 32/69/83
f 32/69/83 60/68/83 61/70/83
f 32/69/83 61/70/83 62/71/83
f 32/69/83 62/71/83 34/72/83
f 34/72/83 62/71/83 63/73/83
f 34/72/83 63/73/83 37/74/83
f 37/74/83 63/73/83 64/75/83
f 37/74/83 64/75/83 65/76/83
f 37/74/83 65/76/83 40/77/83
f 40/77/83 65/76/83 66/78/83
f 40/77/83 66/78/83 43/79/83
f 43/79/83 66/78/83 67/80/83
f 43/79/83 67/80/83 68/81/83
f 43/79/83 68/81/83 46/82/83
f 46/82/83 68/81/83 69/83/83
f 46/82/83 69/83/83 48/84/83
f 48/84/83 69/83/83 70/85/83
f 48/84/83 70/85/83 71/86/83
f 72/87/83 51/88/83 71/86/83
f 71/86/83 51/88/83 48/84/83
f 9/56/83 7/89/83 53/54/83
f 53/54/83 7/89/83 4/90/83
f 53/54/83 4/90/83 2/91/83
f 73/92/84 74/93/85 53/94/86
f 53/94/86 74/93/85 52/95/87
f 52/95/87 74/93/85 75/96/88
f 52/95/89 75/96/90 54/97/91
f 54/97/91 75/96/90 76/98/92
f 54/97/93 76/98/94 77/99/95
f 54/97/93 77/99/95 55/100/96
f 55/100/96 77/99/95 78/101/97
f 55/100/98 78/101/99 79/102/100
f 55/100/98 79/102/100 56/103/101
f 56/103/102 79/102/103 80/104/104
f 56/103/102 80/104/104 57/105/105
f 57/105/105 80/104/104 81/106/106
f 57/105/107 81/106/108 82/107/109
f 57/105/107 82/107/109 58/108/110
f 58/108/110 82/107/109 83/109/111
f 58/108/112 83/109/113 59/110/114
f 59/110/114 83/109/113 84/111/115
f 59/110/116 84/111/117 85/112/118
f 59/110/116 85/112/118 60/113/119
f 60/113/119 85/112/118 86/114/120
f 60/113/121 86/114/122 87/115/123
f 60/113/121 87/115/123 61/116/124
f 61/116/125 87/115/126 88/117/127
f 61/116/125 88/117/127 62/118/128
f 62/118/128 88/117/127 89/119/129
f 62/118/130 89/119/131 90/120/132
f 62/118/130 90/120/132 63/121/133
f 63/121/133 90/120/132 91/122/134
f 63/121/135 91/122/136 64/123/137
f 64/123/137 91/122/136 92/124/138
f 64/123/139 92/124/140 93/125/141
f 64/123/139 93/125/141 65/126/142
f 65/126/142 93/125/141 94/127/143
f 65/126/144 94/127/145 95/128/146
f 65/126/144 95/128/146 66/129/147
f 66/129/148 95/128/149 96/130/150
f 66/129/148 96/130/150 67/131/151
f 67/131/151 96/130/150 97/132/152
f 67/131/153 97/132/154 98/133/155
f 67/131/153 98/133/155 68/134/156
f 68/134/156 98/133/155 99/135/157
f 68/134/158 99/135/159 69/136/160
f 69/136/160 99/135/159 100/137/161
f 69/136/162 100/137/163 101/138/164
f 69/136/162 101/138/164 70/139/165
f 70/139/165 101/138/164 102/140/166
f 70/139/167 102/140/168 103/141/169
f 70/139/167 103/141/169 71/142/170
f 71/142/171 103/141/171 104/143/171
f 71/142/172 104/143/172 72/144/172
f 51/145/173 72/146/173 50/147/173
f 50/147/174 72/146/174 104/148/174
f 50/147/175 104/148/175 49/149/175
f 49/149/176 104/148/176 103/150/176
f 49/149/177 103/150/177 47/151/177
f 47/151/178 103/150/178 102/152/178
f 47/151/179 102/152/179 45/153/179
f 45/153/180 102/152/180 101/154/180
f 45/153/181 101/154/181 44/155/181
f 44/155/182 101/154/182 100/156/182
f 44/155/183 100/156/183 42/157/183
f 42/157/184 100/156/184 99/158/184
f 42/157/185 99/158/185 41/159/185
f 41/159/186 99/158/186 98/160/186
f 41/159/187 98/160/187 39/161/187
f 39/161/188 98/160/188 97/162/188
f 39/161/189 97/162/189 38/163/189
f 38/163/190 97/162/190 96/164/190
f 38/163/191 96/164/191 36/165/191
f 36/165/192 96/164/192 95/166/192
f 36/165/193 95/166/193 35/167/193
f 35/167/194 95/166/194 94/168/194
f 35/167/195 94/168/195 33/169/195
f 33/169/196 94/168/196 93/170/196
f 33/169/197 93/170/197 31/171/197
f 31/171/198 93/170/198 92/172/198
f 31/171/199 92/172/199 30/173/199
f 30/173/200 92/172/200 91/174/200
f 30/173/201 91/174/201 28/175/201
f 28/175/202 91/174/202 90/176/202
f 28/175/203 90/176/203 27/177/203
f 27/177/204 90/176/204 89/178/204
f 27/177/204 89/178/204 88/179/204
f 27/177/205 88/179/205 25/180/205
f 25/180/206 88/179/206 87/181/206
f 25/180/207 87/181/207 24/182/207
f 24/182/208 87/181/208 86/183/208
f 24/182/209 86/183/209 22/184/209
f 22/184/210 86/183/210 85/185/210
f 22/184/211 85/185/211 20/186/211
f 20/186/212 85/185/212 84/187/212
f 20/186/213 84/187/213 19/188/213
f 19/188/214 84/187/214 83/189/214
f 19/188/215 83/189/215 17/190/215
f 17/190/216 83/189/216 82/191/216
f 17/190/217 82/191/217 16/192/217
f 16/192/218 82/191/218 81/193/218
f 16/192/219 81/193/219 14/194/219
f 14/194/220 81/193/220 80/195/220
f 14/194/221 80/195/221 13/196/221
f 13/196/222 80/195/222 79/197/222
f 13/196/223 79/197/223 11/198/223
f 11/198/224 79/197/224 78/199/224
f 11/198/225 78/199/225 10/200/225
f 10/200/226 78/199/226 77/201/226
f 10/200/227 77/201/227 8/202/227
f 8/202/228 77/201/228 76/203/228
f 8/202/229 76/203/229 6/204/229
f 6/204/230 76/203/230 75/205/230
f 6/204/231 75/205/231 5/206/231
f 5/206/232 75/205/232 74/207/232
f 5/206/233 74/207/233 3/208/233
f 3/208/233 74/207/233 1/209/233
f 1/209/234 74/207/234 73/210/234
f 1/211/235 73/92/235 2/212/235
f 2/212/235 73/92/235 53/94/235
