# Blender v2.78 (sub 0) OBJ File: ''
# www.blender.org
mtllib wall_flat.mtl
o MeshBody2.001
v 12.500000 0.000016 -21.650637
v 11.543715 0.000016 -22.175272
v 12.500000 10.000015 -21.650629
v 11.543715 10.000015 -22.175264
v 10.565456 0.000016 -22.657696
v 10.565456 10.000015 -22.657688
v 9.567086 0.000016 -23.096989
v 9.567086 10.000015 -23.096981
v 8.550504 0.000016 -23.492315
v 8.550504 10.000015 -23.492308
v 7.517645 0.000016 -23.842924
v 7.517645 10.000015 -23.842916
v 6.470476 0.000016 -24.148146
v 6.470476 10.000015 -24.148138
v 5.410990 0.000016 -24.407400
v 5.410990 10.000015 -24.407393
v 4.341204 0.000016 -24.620193
v 4.341204 10.000015 -24.620186
v 3.263155 0.000016 -24.786121
v 3.263155 10.000015 -24.786114
v 2.178894 0.000016 -24.904869
v 2.178894 10.000015 -24.904861
v 1.090485 10.000015 -24.976198
v 1.090485 0.000016 -24.976206
v 0.000000 0.000016 -25.000000
v 0.000000 10.000015 -24.999992
v 12.000000 0.000012 -20.784609
v 12.000000 10.000015 -20.784601
v 0.000000 0.000016 -24.000002
v 1.046865 0.000016 -23.977158
v 0.000000 10.000015 -23.999994
v 1.046865 10.000015 -23.977150
v 2.091738 0.000016 -23.908672
v 2.091738 10.000015 -23.908665
v 3.132629 0.000016 -23.794678
v 3.132629 10.000015 -23.794670
v 4.167556 0.000016 -23.635387
v 4.167556 10.000015 -23.635380
v 5.194551 0.000016 -23.431107
v 5.194551 10.000015 -23.431099
v 6.211657 0.000016 -23.182220
v 6.211657 10.000015 -23.182213
v 7.216939 0.000016 -22.889206
v 7.216939 10.000015 -22.889198
v 8.208483 0.000016 -22.552624
v 8.208483 10.000015 -22.552616
v 9.184402 0.000016 -22.173109
v 9.184402 10.000015 -22.173101
v 10.142839 0.000016 -21.751387
v 10.142839 10.000015 -21.751379
v 11.081967 0.000012 -21.288261
v 11.081967 10.000015 -21.288254
vt 0.0000 0.0000
vt 0.0430 0.0000
vt 0.0000 0.3750
vt 0.0430 0.3750
vt 0.0820 0.0000
vt 0.0820 0.3750
vt 0.1211 0.0000
vt 0.1211 0.3750
vt 0.1641 0.0000
vt 0.1641 0.3750
vt 0.2031 0.0000
vt 0.2031 0.3750
vt 0.2461 0.0000
vt 0.2461 0.3750
vt 0.2852 0.0000
vt 0.2852 0.3750
vt 0.3281 0.0000
vt 0.3281 0.3750
vt 0.3672 0.0000
vt 0.3672 0.3750
vt 0.4102 0.0000
vt 0.4102 0.3750
vt 0.4492 0.3750
vt 0.4492 0.0000
vt 0.4922 0.0000
vt 0.4922 0.3750
vt 0.8054 0.2542
vt 0.8476 0.2542
vt 0.8054 0.6767
vt 0.8476 0.6767
vt 0.0000 0.3906
vt 0.0391 0.3906
vt 0.0000 0.7656
vt 0.0391 0.7656
vt 0.0781 0.3906
vt 0.0781 0.7656
vt 0.1172 0.3906
vt 0.1172 0.7656
vt 0.1562 0.3906
vt 0.1562 0.7656
vt 0.1953 0.3906
vt 0.1953 0.7656
vt 0.2344 0.3906
vt 0.2344 0.7656
vt 0.2734 0.3906
vt 0.2734 0.7656
vt 0.3125 0.3906
vt 0.3125 0.7656
vt 0.3516 0.3906
vt 0.3516 0.7656
vt 0.3945 0.3906
vt 0.3945 0.7656
vt 0.4375 0.3906
vt 0.4375 0.7656
vt 0.4766 0.7656
vt 0.4766 0.3906
vt 0.7003 0.2542
vt 0.7425 0.2542
vt 0.7003 0.6767
vt 0.7425 0.6767
vt 0.0002 0.9638
vt 0.0111 0.9230
vt 0.0449 0.9748
vt 0.0541 0.9335
vt 0.0901 0.9838
vt 0.0975 0.9422
vt 0.1357 0.9908
vt 0.1412 0.9489
vt 0.1815 0.9958
vt 0.1852 0.9537
vt 0.2275 0.9988
vt 0.2736 0.9998
vt 0.2293 0.9566
vt 0.3196 0.9988
vt 0.2736 0.9576
vt 0.3656 0.9958
vt 0.3178 0.9566
vt 0.4114 0.9908
vt 0.3619 0.9537
vt 0.4570 0.9838
vt 0.4059 0.9489
vt 0.5022 0.9748
vt 0.4497 0.9422
vt 0.5470 0.9638
vt 0.4931 0.9335
vt 0.5360 0.9230
vt 0.5470 0.9100
vt 0.5022 0.9209
vt 0.5360 0.8691
vt 0.4931 0.8797
vt 0.4570 0.9299
vt 0.4497 0.8883
vt 0.4114 0.9369
vt 0.4059 0.8950
vt 0.3656 0.9419
vt 0.3619 0.8998
vt 0.3196 0.9449
vt 0.2736 0.9460
vt 0.3178 0.9027
vt 0.2275 0.9449
vt 0.2736 0.9037
vt 0.1815 0.9419
vt 0.2293 0.9027
vt 0.1357 0.9369
vt 0.1852 0.8998
vt 0.0901 0.9299
vt 0.1412 0.8950
vt 0.0449 0.9209
vt 0.0975 0.8883
vt 0.0002 0.9100
vt 0.0541 0.8797
vt 0.0111 0.8691
vn 0.4810 0.0000 -0.8767
vn 0.4423 0.0000 -0.8969
vn 0.4027 0.0000 -0.9153
vn 0.3624 0.0000 -0.9320
vn 0.3214 0.0000 -0.9469
vn 0.2798 0.0000 -0.9600
vn 0.2377 0.0000 -0.9713
vn 0.1951 0.0000 -0.9808
vn 0.1521 0.0000 -0.9884
vn 0.1089 0.0000 -0.9941
vn 0.0654 0.0000 -0.9979
vn 0.0218 0.0000 -0.9998
vn 0.8660 -0.0000 0.5000
vn -0.0218 -0.0000 0.9998
vn -0.0654 -0.0000 0.9979
vn -0.1089 -0.0000 0.9941
vn -0.1521 -0.0000 0.9884
vn -0.1951 -0.0000 0.9808
vn -0.2377 -0.0000 0.9713
vn -0.2798 -0.0000 0.9601
vn -0.3214 -0.0000 0.9469
vn -0.3624 -0.0000 0.9320
vn -0.4027 -0.0000 0.9153
vn -0.4423 -0.0000 0.8969
vn -0.4810 -0.0000 0.8767
vn -1.0000 0.0000 0.0000
vn 0.0000 1.0000 0.0000
vn 0.0000 -1.0000 -0.0000
usemtl Steel_-_Satin.002
s 1
f 1/1/1 2/2/1 3/3/1
f 3/3/1 2/2/1 4/4/1
f 4/4/2 2/2/2 5/5/2
f 4/4/2 5/5/2 6/6/2
f 6/6/3 5/5/3 7/7/3
f 6/6/3 7/7/3 8/8/3
f 8/8/4 7/7/4 9/9/4
f 8/8/4 9/9/4 10/10/4
f 10/10/5 9/9/5 11/11/5
f 10/10/5 11/11/5 12/12/5
f 12/12/6 11/11/6 13/13/6
f 12/12/6 13/13/6 14/14/6
f 14/14/7 13/13/7 15/15/7
f 14/14/7 15/15/7 16/16/7
f 16/16/8 15/15/8 17/17/8
f 16/16/8 17/17/8 18/18/8
f 18/18/9 17/17/9 19/19/9
f 18/18/9 19/19/9 20/20/9
f 20/20/10 19/19/10 21/21/10
f 20/20/10 21/21/10 22/22/10
f 22/22/11 21/21/11 23/23/11
f 23/23/11 21/21/11 24/24/11
f 23/23/12 24/24/12 25/25/12
f 25/25/12 26/26/12 23/23/12
f 27/27/13 1/28/13 28/29/13
f 28/29/13 1/28/13 3/30/13
f 29/31/14 30/32/14 31/33/14
f 31/33/14 30/32/14 32/34/14
f 32/34/15 30/32/15 33/35/15
f 32/34/15 33/35/15 34/36/15
f 34/36/16 33/35/16 35/37/16
f 34/36/16 35/37/16 36/38/16
f 36/38/17 35/37/17 37/39/17
f 36/38/17 37/39/17 38/40/17
f 38/40/18 37/39/18 39/41/18
f 38/40/18 39/41/18 40/42/18
f 40/42/19 39/41/19 41/43/19
f 40/42/19 41/43/19 42/44/19
f 42/44/20 41/43/20 43/45/20
f 42/44/20 43/45/20 44/46/20
f 44/46/21 43/45/21 45/47/21
f 44/46/21 45/47/21 46/48/21
f 46/48/22 45/47/22 47/49/22
f 46/48/22 47/49/22 48/50/22
f 48/50/23 47/49/23 49/51/23
f 48/50/23 49/51/23 50/52/23
f 50/52/24 49/51/24 51/53/24
f 50/52/24 51/53/24 52/54/24
f 52/54/25 51/53/25 28/55/25
f 28/55/25 51/53/25 27/56/25
f 25/57/26 29/58/26 26/59/26
f 26/59/26 29/58/26 31/60/26
f 26/61/27 31/62/27 23/63/27
f 23/63/27 31/62/27 32/64/27
f 23/63/27 32/64/27 22/65/27
f 22/65/27 32/64/27 34/66/27
f 22/65/27 34/66/27 20/67/27
f 20/67/27 34/66/27 36/68/27
f 20/67/27 36/68/27 18/69/27
f 18/69/27 36/68/27 38/70/27
f 18/69/27 38/70/27 16/71/27
f 16/71/27 38/70/27 14/72/27
f 14/72/27 38/70/27 40/73/27
f 14/72/27 40/73/27 12/74/27
f 12/74/27 40/73/27 42/75/27
f 12/74/27 42/75/27 10/76/27
f 10/76/27 42/75/27 44/77/27
f 10/76/27 44/77/27 8/78/27
f 8/78/27 44/77/27 46/79/27
f 8/78/27 46/79/27 6/80/27
f 6/80/27 46/79/27 48/81/27
f 6/80/27 48/81/27 4/82/27
f 4/82/27 48/81/27 50/83/27
f 4/82/27 50/83/27 3/84/27
f 3/84/27 50/83/27 52/85/27
f 3/84/27 52/85/27 28/86/27
f 25/87/28 24/88/28 29/89/28
f 29/89/28 24/88/28 30/90/28
f 30/90/28 24/88/28 21/91/28
f 30/90/28 21/91/28 33/92/28
f 33/92/28 21/91/28 19/93/28
f 33/92/28 19/93/28 35/94/28
f 35/94/28 19/93/28 17/95/28
f 35/94/28 17/95/28 37/96/28
f 37/96/28 17/95/28 15/97/28
f 37/96/28 15/97/28 13/98/28
f 37/96/28 13/98/28 39/99/28
f 39/99/28 13/98/28 11/100/28
f 39/99/28 11/100/28 41/101/28
f 41/101/28 11/100/28 9/102/28
f 41/101/28 9/102/28 43/103/28
f 43/103/28 9/102/28 7/104/28
f 43/103/28 7/104/28 45/105/28
f 45/105/28 7/104/28 5/106/28
f 45/105/28 5/106/28 47/107/28
f 47/107/28 5/106/28 2/108/28
f 47/107/28 2/108/28 49/109/28
f 49/109/28 2/108/28 1/110/28
f 49/109/28 1/110/28 51/111/28
f 51/111/28 1/110/28 27/112/28
